<?xml version="1.0" standalone="no"?>
<!DOCTYPE svg PUBLIC "-//W3C//DTD SVG 20010904//EN"
 "http://www.w3.org/TR/2001/REC-SVG-20010904/DTD/svg10.dtd">
<svg version="1.0" xmlns="http://www.w3.org/2000/svg"
 width="600.000000pt" height="600.000000pt" viewBox="0 0 600.000000 600.000000"
 preserveAspectRatio="xMidYMid meet">
<metadata>
Created by potrace 1.14, written by Peter Selinger 2001-2017
</metadata>
<g transform="translate(0.000000,600.000000) scale(0.100000,-0.100000)"
fill="#000000" stroke="none">
<path d="M2830 5994 c-468 -40 -800 -129 -1172 -314 -577 -288 -1050 -761
-1338 -1338 -156 -314 -250 -623 -296 -979 -23 -175 -23 -551 0 -726 95 -726
414 -1346 951 -1846 832 -775 2077 -1003 3145 -574 752 302 1361 911 1663
1663 90 225 150 444 189 700 28 189 31 583 4 783 -33 252 -98 510 -182 724
-405 1030 -1332 1751 -2425 1888 -121 15 -450 27 -539 19z m-985 -1776 c2 -7
106 -419 232 -916 160 -634 230 -896 235 -880 4 13 91 415 193 893 101 479
187 880 190 893 l5 22 317 -2 316 -3 212 -900 c116 -495 214 -907 216 -915 3
-8 109 397 235 900 l229 915 308 3 c242 2 307 0 306 -10 0 -7 -179 -650 -397
-1428 l-397 -1415 -292 -3 c-227 -2 -292 0 -295 10 -3 7 -101 417 -219 911
-117 493 -216 897 -219 897 -3 0 -104 -408 -225 -908 l-221 -907 -284 0 -285
0 -402 1419 c-221 781 -400 1423 -397 1428 3 4 147 8 320 8 243 0 316 -3 319
-12z"/>
</g>
</svg>
